<svg width="345" height="168" viewBox="0 0 345 168" fill="none" xmlns="http://www.w3.org/2000/svg">
<rect width="345" height="168" rx="20" fill="#0D0D0D"/>
<path d="M155.147 58L149.407 51.64V58H147.587V44.06H149.407V50.52L155.167 44.06H157.467L151.147 51.04L157.527 58H155.147ZM161.38 48.82C161.7 48.1933 162.153 47.7067 162.74 47.36C163.34 47.0133 164.066 46.84 164.92 46.84V48.72H164.44C162.4 48.72 161.38 49.8267 161.38 52.04V58H159.56V47.04H161.38V48.82ZM167.96 45.26C167.614 45.26 167.32 45.14 167.08 44.9C166.84 44.66 166.72 44.3667 166.72 44.02C166.72 43.6733 166.84 43.38 167.08 43.14C167.32 42.9 167.614 42.78 167.96 42.78C168.294 42.78 168.574 42.9 168.8 43.14C169.04 43.38 169.16 43.6733 169.16 44.02C169.16 44.3667 169.04 44.66 168.8 44.9C168.574 45.14 168.294 45.26 167.96 45.26ZM168.84 47.04V58H167.02V47.04H168.84ZM175.822 58.18C174.982 58.18 174.229 58.04 173.562 57.76C172.896 57.4667 172.369 57.0667 171.982 56.56C171.596 56.04 171.382 55.4467 171.342 54.78H173.222C173.276 55.3267 173.529 55.7733 173.982 56.12C174.449 56.4667 175.056 56.64 175.802 56.64C176.496 56.64 177.042 56.4867 177.442 56.18C177.842 55.8733 178.042 55.4867 178.042 55.02C178.042 54.54 177.829 54.1867 177.402 53.96C176.976 53.72 176.316 53.4867 175.422 53.26C174.609 53.0467 173.942 52.8333 173.422 52.62C172.916 52.3933 172.476 52.0667 172.102 51.64C171.742 51.2 171.562 50.6267 171.562 49.92C171.562 49.36 171.729 48.8467 172.062 48.38C172.396 47.9133 172.869 47.5467 173.482 47.28C174.096 47 174.796 46.86 175.582 46.86C176.796 46.86 177.776 47.1667 178.522 47.78C179.269 48.3933 179.669 49.2333 179.722 50.3H177.902C177.862 49.7267 177.629 49.2667 177.202 48.92C176.789 48.5733 176.229 48.4 175.522 48.4C174.869 48.4 174.349 48.54 173.962 48.82C173.576 49.1 173.382 49.4667 173.382 49.92C173.382 50.28 173.496 50.58 173.722 50.82C173.962 51.0467 174.256 51.2333 174.602 51.38C174.962 51.5133 175.456 51.6667 176.082 51.84C176.869 52.0533 177.509 52.2667 178.002 52.48C178.496 52.68 178.916 52.9867 179.262 53.4C179.622 53.8133 179.809 54.3533 179.822 55.02C179.822 55.62 179.656 56.16 179.322 56.64C178.989 57.12 178.516 57.5 177.902 57.78C177.302 58.0467 176.609 58.18 175.822 58.18ZM187.832 46.84C188.658 46.84 189.405 47.02 190.072 47.38C190.738 47.7267 191.258 48.2533 191.632 48.96C192.018 49.6667 192.212 50.5267 192.212 51.54V58H190.412V51.8C190.412 50.7067 190.138 49.8733 189.592 49.3C189.045 48.7133 188.298 48.42 187.352 48.42C186.392 48.42 185.625 48.72 185.052 49.32C184.492 49.92 184.212 50.7933 184.212 51.94V58H182.392V43.2H184.212V48.6C184.572 48.04 185.065 47.6067 185.692 47.3C186.332 46.9933 187.045 46.84 187.832 46.84ZM200.525 46.84C201.858 46.84 202.938 47.2467 203.765 48.06C204.591 48.86 205.005 50.02 205.005 51.54V58H203.205V51.8C203.205 50.7067 202.931 49.8733 202.385 49.3C201.838 48.7133 201.091 48.42 200.145 48.42C199.185 48.42 198.418 48.72 197.845 49.32C197.285 49.92 197.005 50.7933 197.005 51.94V58H195.185V47.04H197.005V48.6C197.365 48.04 197.851 47.6067 198.465 47.3C199.091 46.9933 199.778 46.84 200.525 46.84ZM207.298 52.48C207.298 51.36 207.524 50.38 207.978 49.54C208.431 48.6867 209.051 48.0267 209.838 47.56C210.638 47.0933 211.524 46.86 212.498 46.86C213.458 46.86 214.291 47.0667 214.998 47.48C215.704 47.8933 216.231 48.4133 216.578 49.04V47.04H218.418V58H216.578V55.96C216.218 56.6 215.678 57.1333 214.958 57.56C214.251 57.9733 213.424 58.18 212.478 58.18C211.504 58.18 210.624 57.94 209.838 57.46C209.051 56.98 208.431 56.3067 207.978 55.44C207.524 54.5733 207.298 53.5867 207.298 52.48ZM216.578 52.5C216.578 51.6733 216.411 50.9533 216.078 50.34C215.744 49.7267 215.291 49.26 214.718 48.94C214.158 48.6067 213.538 48.44 212.858 48.44C212.178 48.44 211.558 48.6 210.998 48.92C210.438 49.24 209.991 49.7067 209.658 50.32C209.324 50.9333 209.158 51.6533 209.158 52.48C209.158 53.32 209.324 54.0533 209.658 54.68C209.991 55.2933 210.438 55.7667 210.998 56.1C211.558 56.42 212.178 56.58 212.858 56.58C213.538 56.58 214.158 56.42 214.718 56.1C215.291 55.7667 215.744 55.2933 216.078 54.68C216.411 54.0533 216.578 53.3267 216.578 52.5Z" fill="white"/>
<path d="M149.008 65.308C149.896 65.308 150.668 65.476 151.324 65.812C151.98 66.148 152.484 66.62 152.836 67.228C153.188 67.828 153.364 68.524 153.364 69.316C153.364 69.948 153.26 70.556 153.052 71.14C152.844 71.716 152.54 72.184 152.14 72.544C151.748 72.904 151.288 73.084 150.76 73.084C150.36 73.084 150.052 72.984 149.836 72.784C149.62 72.584 149.496 72.312 149.464 71.968C149.216 72.312 148.9 72.584 148.516 72.784C148.14 72.984 147.74 73.084 147.316 73.084C146.708 73.084 146.228 72.9 145.876 72.532C145.532 72.156 145.36 71.652 145.36 71.02C145.36 70.42 145.484 69.86 145.732 69.34C145.988 68.82 146.34 68.404 146.788 68.092C147.236 67.772 147.744 67.612 148.312 67.612C149.072 67.612 149.584 67.9 149.848 68.476L149.98 67.732H150.928L150.328 71.2C150.304 71.352 150.292 71.492 150.292 71.62C150.292 72.1 150.504 72.34 150.928 72.34C151.248 72.34 151.524 72.188 151.756 71.884C151.996 71.58 152.176 71.2 152.296 70.744C152.416 70.28 152.476 69.824 152.476 69.376C152.476 68.328 152.16 67.516 151.528 66.94C150.904 66.364 150.02 66.076 148.876 66.076C147.924 66.076 147.064 66.308 146.296 66.772C145.536 67.228 144.94 67.856 144.508 68.656C144.076 69.456 143.86 70.34 143.86 71.308C143.852 72.364 144.168 73.176 144.808 73.744C145.448 74.32 146.336 74.608 147.472 74.608C148.224 74.608 148.888 74.472 149.464 74.2L149.608 74.944C148.896 75.24 148.112 75.388 147.256 75.388C146.4 75.388 145.644 75.224 144.988 74.896C144.34 74.576 143.836 74.112 143.476 73.504C143.124 72.904 142.948 72.204 142.948 71.404C142.948 70.276 143.208 69.248 143.728 68.32C144.248 67.384 144.968 66.648 145.888 66.112C146.816 65.576 147.856 65.308 149.008 65.308ZM147.64 72.232C148 72.232 148.332 72.128 148.636 71.92C148.94 71.704 149.18 71.416 149.356 71.056C149.532 70.688 149.62 70.288 149.62 69.856C149.62 69.44 149.504 69.104 149.272 68.848C149.048 68.584 148.728 68.452 148.312 68.452C147.928 68.452 147.588 68.568 147.292 68.8C147.004 69.024 146.78 69.324 146.62 69.7C146.46 70.068 146.38 70.452 146.38 70.852C146.38 71.276 146.488 71.612 146.704 71.86C146.92 72.108 147.232 72.232 147.64 72.232ZM156.252 64.636V73H155.16V64.636H156.252ZM161.785 73L159.205 70.096V73H158.113V64.12H159.205V69.34L161.737 66.424H163.261L160.165 69.7L163.273 73H161.785ZM163.881 69.688C163.881 69.016 164.017 68.428 164.289 67.924C164.561 67.412 164.933 67.016 165.405 66.736C165.885 66.456 166.417 66.316 167.001 66.316C167.577 66.316 168.077 66.44 168.501 66.688C168.925 66.936 169.241 67.248 169.449 67.624V66.424H170.553V73H169.449V71.776C169.233 72.16 168.909 72.48 168.477 72.736C168.053 72.984 167.557 73.108 166.989 73.108C166.405 73.108 165.877 72.964 165.405 72.676C164.933 72.388 164.561 71.984 164.289 71.464C164.017 70.944 163.881 70.352 163.881 69.688ZM169.449 69.7C169.449 69.204 169.349 68.772 169.149 68.404C168.949 68.036 168.677 67.756 168.333 67.564C167.997 67.364 167.625 67.264 167.217 67.264C166.809 67.264 166.437 67.36 166.101 67.552C165.765 67.744 165.497 68.024 165.297 68.392C165.097 68.76 164.997 69.192 164.997 69.688C164.997 70.192 165.097 70.632 165.297 71.008C165.497 71.376 165.765 71.66 166.101 71.86C166.437 72.052 166.809 72.148 167.217 72.148C167.625 72.148 167.997 72.052 168.333 71.86C168.677 71.66 168.949 71.376 169.149 71.008C169.349 70.632 169.449 70.196 169.449 69.7ZM171.991 69.688C171.991 69.016 172.127 68.428 172.399 67.924C172.671 67.412 173.043 67.016 173.515 66.736C173.995 66.456 174.527 66.316 175.111 66.316C175.687 66.316 176.187 66.44 176.611 66.688C177.035 66.936 177.351 67.248 177.559 67.624V66.424H178.663V73H177.559V71.776C177.343 72.16 177.019 72.48 176.587 72.736C176.163 72.984 175.667 73.108 175.099 73.108C174.515 73.108 173.987 72.964 173.515 72.676C173.043 72.388 172.671 71.984 172.399 71.464C172.127 70.944 171.991 70.352 171.991 69.688ZM177.559 69.7C177.559 69.204 177.459 68.772 177.259 68.404C177.059 68.036 176.787 67.756 176.443 67.564C176.107 67.364 175.735 67.264 175.327 67.264C174.919 67.264 174.547 67.36 174.211 67.552C173.875 67.744 173.607 68.024 173.407 68.392C173.207 68.76 173.107 69.192 173.107 69.688C173.107 70.192 173.207 70.632 173.407 71.008C173.607 71.376 173.875 71.66 174.211 71.86C174.547 72.052 174.919 72.148 175.327 72.148C175.735 72.148 176.107 72.052 176.443 71.86C176.787 71.66 177.059 71.376 177.259 71.008C177.459 70.632 177.559 70.196 177.559 69.7ZM183.712 66.304C184.512 66.304 185.16 66.548 185.656 67.036C186.152 67.516 186.4 68.212 186.4 69.124V73H185.32V69.28C185.32 68.624 185.156 68.124 184.828 67.78C184.5 67.428 184.052 67.252 183.484 67.252C182.908 67.252 182.448 67.432 182.104 67.792C181.768 68.152 181.6 68.676 181.6 69.364V73H180.508V66.424H181.6V67.36C181.816 67.024 182.108 66.764 182.476 66.58C182.852 66.396 183.264 66.304 183.712 66.304ZM190.512 73.108C190.008 73.108 189.556 73.024 189.156 72.856C188.756 72.68 188.44 72.44 188.208 72.136C187.976 71.824 187.848 71.468 187.824 71.068H188.952C188.984 71.396 189.136 71.664 189.408 71.872C189.688 72.08 190.052 72.184 190.5 72.184C190.916 72.184 191.244 72.092 191.484 71.908C191.724 71.724 191.844 71.492 191.844 71.212C191.844 70.924 191.716 70.712 191.46 70.576C191.204 70.432 190.808 70.292 190.272 70.156C189.784 70.028 189.384 69.9 189.072 69.772C188.768 69.636 188.504 69.44 188.28 69.184C188.064 68.92 187.956 68.576 187.956 68.152C187.956 67.816 188.056 67.508 188.256 67.228C188.456 66.948 188.74 66.728 189.108 66.568C189.476 66.4 189.896 66.316 190.368 66.316C191.096 66.316 191.684 66.5 192.132 66.868C192.58 67.236 192.82 67.74 192.852 68.38H191.76C191.736 68.036 191.596 67.76 191.34 67.552C191.092 67.344 190.756 67.24 190.332 67.24C189.94 67.24 189.628 67.324 189.396 67.492C189.164 67.66 189.048 67.88 189.048 68.152C189.048 68.368 189.116 68.548 189.252 68.692C189.396 68.828 189.572 68.94 189.78 69.028C189.996 69.108 190.292 69.2 190.668 69.304C191.14 69.432 191.524 69.56 191.82 69.688C192.116 69.808 192.368 69.992 192.576 70.24C192.792 70.488 192.904 70.812 192.912 71.212C192.912 71.572 192.812 71.896 192.612 72.184C192.412 72.472 192.128 72.7 191.76 72.868C191.4 73.028 190.984 73.108 190.512 73.108ZM197.717 66.304C198.213 66.304 198.661 66.412 199.061 66.628C199.461 66.836 199.773 67.152 199.997 67.576C200.229 68 200.345 68.516 200.345 69.124V73H199.265V69.28C199.265 68.624 199.101 68.124 198.773 67.78C198.445 67.428 197.997 67.252 197.429 67.252C196.853 67.252 196.393 67.432 196.049 67.792C195.713 68.152 195.545 68.676 195.545 69.364V73H194.453V64.12H195.545V67.36C195.761 67.024 196.057 66.764 196.433 66.58C196.817 66.396 197.245 66.304 197.717 66.304ZM206.689 68.14V69.064H201.901V68.14H206.689ZM213.466 64.636V65.524H209.83V68.344H212.782V69.232H209.83V73H208.738V64.636H213.466ZM217.653 73.108C217.037 73.108 216.477 72.968 215.973 72.688C215.477 72.408 215.085 72.012 214.797 71.5C214.517 70.98 214.377 70.38 214.377 69.7C214.377 69.028 214.521 68.436 214.809 67.924C215.105 67.404 215.505 67.008 216.009 66.736C216.513 66.456 217.077 66.316 217.701 66.316C218.325 66.316 218.889 66.456 219.393 66.736C219.897 67.008 220.293 67.4 220.581 67.912C220.877 68.424 221.025 69.02 221.025 69.7C221.025 70.38 220.873 70.98 220.569 71.5C220.273 72.012 219.869 72.408 219.357 72.688C218.845 72.968 218.277 73.108 217.653 73.108ZM217.653 72.148C218.045 72.148 218.413 72.056 218.757 71.872C219.101 71.688 219.377 71.412 219.585 71.044C219.801 70.676 219.909 70.228 219.909 69.7C219.909 69.172 219.805 68.724 219.597 68.356C219.389 67.988 219.117 67.716 218.781 67.54C218.445 67.356 218.081 67.264 217.689 67.264C217.289 67.264 216.921 67.356 216.585 67.54C216.257 67.716 215.993 67.988 215.793 68.356C215.593 68.724 215.493 69.172 215.493 69.7C215.493 70.236 215.589 70.688 215.781 71.056C215.981 71.424 216.245 71.7 216.573 71.884C216.901 72.06 217.261 72.148 217.653 72.148ZM228.293 66.424V73H227.201V72.028C226.993 72.364 226.701 72.628 226.325 72.82C225.957 73.004 225.549 73.096 225.101 73.096C224.589 73.096 224.129 72.992 223.721 72.784C223.313 72.568 222.989 72.248 222.749 71.824C222.517 71.4 222.401 70.884 222.401 70.276V66.424H223.481V70.132C223.481 70.78 223.645 71.28 223.973 71.632C224.301 71.976 224.749 72.148 225.317 72.148C225.901 72.148 226.361 71.968 226.697 71.608C227.033 71.248 227.201 70.724 227.201 70.036V66.424H228.293ZM233.341 66.304C234.141 66.304 234.789 66.548 235.285 67.036C235.781 67.516 236.029 68.212 236.029 69.124V73H234.949V69.28C234.949 68.624 234.785 68.124 234.457 67.78C234.129 67.428 233.681 67.252 233.113 67.252C232.537 67.252 232.077 67.432 231.733 67.792C231.397 68.152 231.229 68.676 231.229 69.364V73H230.137V66.424H231.229V67.36C231.445 67.024 231.737 66.764 232.105 66.58C232.481 66.396 232.893 66.304 233.341 66.304ZM237.405 69.688C237.405 69.016 237.541 68.428 237.813 67.924C238.085 67.412 238.457 67.016 238.929 66.736C239.409 66.456 239.945 66.316 240.537 66.316C241.049 66.316 241.525 66.436 241.965 66.676C242.405 66.908 242.741 67.216 242.973 67.6V64.12H244.077V73H242.973V71.764C242.757 72.156 242.437 72.48 242.013 72.736C241.589 72.984 241.093 73.108 240.525 73.108C239.941 73.108 239.409 72.964 238.929 72.676C238.457 72.388 238.085 71.984 237.813 71.464C237.541 70.944 237.405 70.352 237.405 69.688ZM242.973 69.7C242.973 69.204 242.873 68.772 242.673 68.404C242.473 68.036 242.201 67.756 241.857 67.564C241.521 67.364 241.149 67.264 240.741 67.264C240.333 67.264 239.961 67.36 239.625 67.552C239.289 67.744 239.021 68.024 238.821 68.392C238.621 68.76 238.521 69.192 238.521 69.688C238.521 70.192 238.621 70.632 238.821 71.008C239.021 71.376 239.289 71.66 239.625 71.86C239.961 72.052 240.333 72.148 240.741 72.148C241.149 72.148 241.521 72.052 241.857 71.86C242.201 71.66 242.473 71.376 242.673 71.008C242.873 70.632 242.973 70.196 242.973 69.7ZM251.922 69.46C251.922 69.668 251.91 69.888 251.886 70.12H246.63C246.67 70.768 246.89 71.276 247.29 71.644C247.698 72.004 248.19 72.184 248.766 72.184C249.238 72.184 249.63 72.076 249.942 71.86C250.262 71.636 250.486 71.34 250.614 70.972H251.79C251.614 71.604 251.262 72.12 250.734 72.52C250.206 72.912 249.55 73.108 248.766 73.108C248.142 73.108 247.582 72.968 247.086 72.688C246.598 72.408 246.214 72.012 245.934 71.5C245.654 70.98 245.514 70.38 245.514 69.7C245.514 69.02 245.65 68.424 245.922 67.912C246.194 67.4 246.574 67.008 247.062 66.736C247.558 66.456 248.126 66.316 248.766 66.316C249.39 66.316 249.942 66.452 250.422 66.724C250.902 66.996 251.27 67.372 251.526 67.852C251.79 68.324 251.922 68.86 251.922 69.46ZM250.794 69.232C250.794 68.816 250.702 68.46 250.518 68.164C250.334 67.86 250.082 67.632 249.762 67.48C249.45 67.32 249.102 67.24 248.718 67.24C248.166 67.24 247.694 67.416 247.302 67.768C246.918 68.12 246.698 68.608 246.642 69.232H250.794ZM254.455 67.492C254.647 67.116 254.919 66.824 255.271 66.616C255.631 66.408 256.067 66.304 256.579 66.304V67.432H256.291C255.067 67.432 254.455 68.096 254.455 69.424V73H253.363V66.424H254.455V67.492Z" fill="#969696"/>
<path d="M53.929 104.83H52.807L53.863 102.333H54.578L53.929 104.83ZM55.711 104.83H54.589L55.645 102.333H56.36L55.711 104.83ZM61.0447 110.077C60.3333 110.077 59.6843 109.912 59.0977 109.582C58.511 109.245 58.0453 108.779 57.7007 108.185C57.3633 107.584 57.1947 106.909 57.1947 106.161C57.1947 105.413 57.3633 104.742 57.7007 104.148C58.0453 103.547 58.511 103.081 59.0977 102.751C59.6843 102.414 60.3333 102.245 61.0447 102.245C61.7633 102.245 62.416 102.414 63.0027 102.751C63.5893 103.081 64.0513 103.543 64.3887 104.137C64.726 104.731 64.8947 105.406 64.8947 106.161C64.8947 106.916 64.726 107.591 64.3887 108.185C64.0513 108.779 63.5893 109.245 63.0027 109.582C62.416 109.912 61.7633 110.077 61.0447 110.077ZM61.0447 109.208C61.58 109.208 62.0603 109.083 62.4857 108.834C62.9183 108.585 63.2557 108.229 63.4977 107.767C63.747 107.305 63.8717 106.77 63.8717 106.161C63.8717 105.545 63.747 105.01 63.4977 104.555C63.2557 104.093 62.922 103.737 62.4967 103.488C62.0713 103.239 61.5873 103.114 61.0447 103.114C60.502 103.114 60.018 103.239 59.5927 103.488C59.1673 103.737 58.83 104.093 58.5807 104.555C58.3387 105.01 58.2177 105.545 58.2177 106.161C58.2177 106.77 58.3387 107.305 58.5807 107.767C58.83 108.229 59.1673 108.585 59.5927 108.834C60.0253 109.083 60.5093 109.208 61.0447 109.208ZM71.5621 103.972V110H70.5611V109.109C70.3705 109.417 70.1028 109.659 69.7581 109.835C69.4208 110.004 69.0468 110.088 68.6361 110.088C68.1668 110.088 67.7451 109.993 67.3711 109.802C66.9971 109.604 66.7001 109.311 66.4801 108.922C66.2675 108.533 66.1611 108.06 66.1611 107.503V103.972H67.1511V107.371C67.1511 107.965 67.3015 108.423 67.6021 108.746C67.9028 109.061 68.3135 109.219 68.8341 109.219C69.3695 109.219 69.7911 109.054 70.0991 108.724C70.4071 108.394 70.5611 107.914 70.5611 107.283V103.972H71.5621ZM74.2533 104.951C74.4293 104.606 74.6786 104.339 75.0013 104.148C75.3313 103.957 75.7309 103.862 76.2003 103.862V104.896H75.9363C74.8143 104.896 74.2533 105.505 74.2533 106.722V110H73.2523V103.972H74.2533V104.951ZM84.1274 106.051C84.4061 106.095 84.6591 106.209 84.8864 106.392C85.1211 106.575 85.3044 106.803 85.4364 107.074C85.5757 107.345 85.6454 107.635 85.6454 107.943C85.6454 108.332 85.5464 108.684 85.3484 108.999C85.1504 109.307 84.8607 109.553 84.4794 109.736C84.1054 109.912 83.6617 110 83.1484 110H80.2884V102.333H83.0384C83.5591 102.333 84.0027 102.421 84.3694 102.597C84.7361 102.766 85.0111 102.997 85.1944 103.29C85.3777 103.583 85.4694 103.913 85.4694 104.28C85.4694 104.735 85.3447 105.112 85.0954 105.413C84.8534 105.706 84.5307 105.919 84.1274 106.051ZM81.2894 105.644H82.9724C83.4417 105.644 83.8047 105.534 84.0614 105.314C84.3181 105.094 84.4464 104.79 84.4464 104.401C84.4464 104.012 84.3181 103.708 84.0614 103.488C83.8047 103.268 83.4344 103.158 82.9504 103.158H81.2894V105.644ZM83.0604 109.175C83.5591 109.175 83.9477 109.058 84.2264 108.823C84.5051 108.588 84.6444 108.262 84.6444 107.844C84.6444 107.419 84.4977 107.085 84.2044 106.843C83.9111 106.594 83.5187 106.469 83.0274 106.469H81.2894V109.175H83.0604ZM88.0355 104.951C88.2115 104.606 88.4608 104.339 88.7835 104.148C89.1135 103.957 89.5132 103.862 89.9825 103.862V104.896H89.7185C88.5965 104.896 88.0355 105.505 88.0355 106.722V110H87.0345V103.972H88.0355V104.951ZM90.764 106.964C90.764 106.348 90.8887 105.809 91.138 105.347C91.3873 104.878 91.7283 104.515 92.161 104.258C92.601 104.001 93.0887 103.873 93.624 103.873C94.152 103.873 94.6103 103.987 94.999 104.214C95.3877 104.441 95.6773 104.727 95.868 105.072V103.972H96.88V110H95.868V108.878C95.67 109.23 95.373 109.523 94.977 109.758C94.5883 109.985 94.1337 110.099 93.613 110.099C93.0777 110.099 92.5937 109.967 92.161 109.703C91.7283 109.439 91.3873 109.069 91.138 108.592C90.8887 108.115 90.764 107.573 90.764 106.964ZM95.868 106.975C95.868 106.52 95.7763 106.124 95.593 105.787C95.4097 105.45 95.1603 105.193 94.845 105.017C94.537 104.834 94.196 104.742 93.822 104.742C93.448 104.742 93.107 104.83 92.799 105.006C92.491 105.182 92.2453 105.439 92.062 105.776C91.8787 106.113 91.787 106.509 91.787 106.964C91.787 107.426 91.8787 107.829 92.062 108.174C92.2453 108.511 92.491 108.772 92.799 108.955C93.107 109.131 93.448 109.219 93.822 109.219C94.196 109.219 94.537 109.131 94.845 108.955C95.1603 108.772 95.4097 108.511 95.593 108.174C95.7763 107.829 95.868 107.43 95.868 106.975ZM101.509 103.862C102.242 103.862 102.836 104.086 103.291 104.533C103.745 104.973 103.973 105.611 103.973 106.447V110H102.983V106.59C102.983 105.989 102.832 105.53 102.532 105.215C102.231 104.892 101.82 104.731 101.3 104.731C100.772 104.731 100.35 104.896 100.035 105.226C99.7266 105.556 99.5726 106.036 99.5726 106.667V110H98.5716V103.972H99.5726V104.83C99.7706 104.522 100.038 104.284 100.376 104.115C100.72 103.946 101.098 103.862 101.509 103.862ZM105.234 106.964C105.234 106.348 105.358 105.809 105.608 105.347C105.857 104.878 106.198 104.515 106.631 104.258C107.071 104.001 107.562 103.873 108.105 103.873C108.574 103.873 109.01 103.983 109.414 104.203C109.817 104.416 110.125 104.698 110.338 105.05V101.86H111.35V110H110.338V108.867C110.14 109.226 109.846 109.523 109.458 109.758C109.069 109.985 108.614 110.099 108.094 110.099C107.558 110.099 107.071 109.967 106.631 109.703C106.198 109.439 105.857 109.069 105.608 108.592C105.358 108.115 105.234 107.573 105.234 106.964ZM110.338 106.975C110.338 106.52 110.246 106.124 110.063 105.787C109.879 105.45 109.63 105.193 109.315 105.017C109.007 104.834 108.666 104.742 108.292 104.742C107.918 104.742 107.577 104.83 107.269 105.006C106.961 105.182 106.715 105.439 106.532 105.776C106.348 106.113 106.257 106.509 106.257 106.964C106.257 107.426 106.348 107.829 106.532 108.174C106.715 108.511 106.961 108.772 107.269 108.955C107.577 109.131 107.918 109.219 108.292 109.219C108.666 109.219 109.007 109.131 109.315 108.955C109.63 108.772 109.879 108.511 110.063 108.174C110.246 107.829 110.338 107.43 110.338 106.975ZM121.1 104.577C121.1 105.215 120.88 105.747 120.44 106.172C120.007 106.59 119.344 106.799 118.449 106.799H116.975V110H115.974V102.333H118.449C119.314 102.333 119.971 102.542 120.418 102.96C120.873 103.378 121.1 103.917 121.1 104.577ZM118.449 105.974C119.006 105.974 119.417 105.853 119.681 105.611C119.945 105.369 120.077 105.024 120.077 104.577C120.077 103.631 119.534 103.158 118.449 103.158H116.975V105.974H118.449ZM127.844 106.755C127.844 106.946 127.833 107.147 127.811 107.36H122.993C123.03 107.954 123.231 108.42 123.598 108.757C123.972 109.087 124.423 109.252 124.951 109.252C125.384 109.252 125.743 109.153 126.029 108.955C126.322 108.75 126.528 108.478 126.645 108.141H127.723C127.562 108.72 127.239 109.193 126.755 109.56C126.271 109.919 125.67 110.099 124.951 110.099C124.379 110.099 123.866 109.971 123.411 109.714C122.964 109.457 122.612 109.094 122.355 108.625C122.098 108.148 121.97 107.598 121.97 106.975C121.97 106.352 122.095 105.805 122.344 105.336C122.593 104.867 122.942 104.507 123.389 104.258C123.844 104.001 124.364 103.873 124.951 103.873C125.523 103.873 126.029 103.998 126.469 104.247C126.909 104.496 127.246 104.841 127.481 105.281C127.723 105.714 127.844 106.205 127.844 106.755ZM126.81 106.546C126.81 106.165 126.726 105.838 126.557 105.567C126.388 105.288 126.157 105.079 125.864 104.94C125.578 104.793 125.259 104.72 124.907 104.72C124.401 104.72 123.968 104.881 123.609 105.204C123.257 105.527 123.055 105.974 123.004 106.546H126.81ZM130.166 104.951C130.342 104.606 130.592 104.339 130.914 104.148C131.244 103.957 131.644 103.862 132.113 103.862V104.896H131.849C130.727 104.896 130.166 105.505 130.166 106.722V110H129.165V103.972H130.166V104.951ZM135.403 110.099C134.941 110.099 134.527 110.022 134.16 109.868C133.793 109.707 133.504 109.487 133.291 109.208C133.078 108.922 132.961 108.596 132.939 108.229H133.973C134.002 108.53 134.142 108.775 134.391 108.966C134.648 109.157 134.981 109.252 135.392 109.252C135.773 109.252 136.074 109.168 136.294 108.999C136.514 108.83 136.624 108.618 136.624 108.361C136.624 108.097 136.507 107.903 136.272 107.778C136.037 107.646 135.674 107.518 135.183 107.393C134.736 107.276 134.369 107.158 134.083 107.041C133.804 106.916 133.562 106.737 133.357 106.502C133.159 106.26 133.06 105.945 133.06 105.556C133.06 105.248 133.152 104.966 133.335 104.709C133.518 104.452 133.779 104.251 134.116 104.104C134.453 103.95 134.838 103.873 135.271 103.873C135.938 103.873 136.477 104.042 136.888 104.379C137.299 104.716 137.519 105.178 137.548 105.765H136.547C136.525 105.45 136.397 105.197 136.162 105.006C135.935 104.815 135.627 104.72 135.238 104.72C134.879 104.72 134.593 104.797 134.38 104.951C134.167 105.105 134.061 105.307 134.061 105.556C134.061 105.754 134.123 105.919 134.248 106.051C134.38 106.176 134.541 106.278 134.732 106.359C134.93 106.432 135.201 106.517 135.546 106.612C135.979 106.729 136.331 106.847 136.602 106.964C136.873 107.074 137.104 107.243 137.295 107.47C137.493 107.697 137.596 107.994 137.603 108.361C137.603 108.691 137.511 108.988 137.328 109.252C137.145 109.516 136.884 109.725 136.547 109.879C136.217 110.026 135.836 110.099 135.403 110.099ZM141.645 110.099C141.08 110.099 140.567 109.971 140.105 109.714C139.65 109.457 139.291 109.094 139.027 108.625C138.77 108.148 138.642 107.598 138.642 106.975C138.642 106.359 138.774 105.816 139.038 105.347C139.309 104.87 139.676 104.507 140.138 104.258C140.6 104.001 141.117 103.873 141.689 103.873C142.261 103.873 142.778 104.001 143.24 104.258C143.702 104.507 144.065 104.867 144.329 105.336C144.6 105.805 144.736 106.352 144.736 106.975C144.736 107.598 144.597 108.148 144.318 108.625C144.047 109.094 143.676 109.457 143.207 109.714C142.738 109.971 142.217 110.099 141.645 110.099ZM141.645 109.219C142.004 109.219 142.342 109.135 142.657 108.966C142.972 108.797 143.225 108.544 143.416 108.207C143.614 107.87 143.713 107.459 143.713 106.975C143.713 106.491 143.618 106.08 143.427 105.743C143.236 105.406 142.987 105.156 142.679 104.995C142.371 104.826 142.037 104.742 141.678 104.742C141.311 104.742 140.974 104.826 140.666 104.995C140.365 105.156 140.123 105.406 139.94 105.743C139.757 106.08 139.665 106.491 139.665 106.975C139.665 107.466 139.753 107.881 139.929 108.218C140.112 108.555 140.354 108.808 140.655 108.977C140.956 109.138 141.286 109.219 141.645 109.219ZM148.989 103.862C149.722 103.862 150.316 104.086 150.771 104.533C151.226 104.973 151.453 105.611 151.453 106.447V110H150.463V106.59C150.463 105.989 150.313 105.53 150.012 105.215C149.711 104.892 149.301 104.731 148.78 104.731C148.252 104.731 147.83 104.896 147.515 105.226C147.207 105.556 147.053 106.036 147.053 106.667V110H146.052V103.972H147.053V104.83C147.251 104.522 147.519 104.284 147.856 104.115C148.201 103.946 148.578 103.862 148.989 103.862ZM152.714 106.964C152.714 106.348 152.839 105.809 153.088 105.347C153.338 104.878 153.679 104.515 154.111 104.258C154.551 104.001 155.039 103.873 155.574 103.873C156.102 103.873 156.561 103.987 156.949 104.214C157.338 104.441 157.628 104.727 157.818 105.072V103.972H158.83V110H157.818V108.878C157.62 109.23 157.323 109.523 156.927 109.758C156.539 109.985 156.084 110.099 155.563 110.099C155.028 110.099 154.544 109.967 154.111 109.703C153.679 109.439 153.338 109.069 153.088 108.592C152.839 108.115 152.714 107.573 152.714 106.964ZM157.818 106.975C157.818 106.52 157.727 106.124 157.543 105.787C157.36 105.45 157.111 105.193 156.795 105.017C156.487 104.834 156.146 104.742 155.772 104.742C155.398 104.742 155.057 104.83 154.749 105.006C154.441 105.182 154.196 105.439 154.012 105.776C153.829 106.113 153.737 106.509 153.737 106.964C153.737 107.426 153.829 107.829 154.012 108.174C154.196 108.511 154.441 108.772 154.749 108.955C155.057 109.131 155.398 109.219 155.772 109.219C156.146 109.219 156.487 109.131 156.795 108.955C157.111 108.772 157.36 108.511 157.543 108.174C157.727 107.829 157.818 107.43 157.818 106.975ZM161.523 101.86V110H160.522V101.86H161.523ZM163.746 102.993C163.555 102.993 163.394 102.927 163.262 102.795C163.13 102.663 163.064 102.502 163.064 102.311C163.064 102.12 163.13 101.959 163.262 101.827C163.394 101.695 163.555 101.629 163.746 101.629C163.929 101.629 164.083 101.695 164.208 101.827C164.34 101.959 164.406 102.12 164.406 102.311C164.406 102.502 164.34 102.663 164.208 102.795C164.083 102.927 163.929 102.993 163.746 102.993ZM164.23 103.972V110H163.229V103.972H164.23ZM167.157 104.797V108.35C167.157 108.643 167.219 108.852 167.344 108.977C167.469 109.094 167.685 109.153 167.993 109.153H168.73V110H167.828C167.271 110 166.853 109.872 166.574 109.615C166.295 109.358 166.156 108.937 166.156 108.35V104.797H165.375V103.972H166.156V102.454H167.157V103.972H168.73V104.797H167.157ZM175.135 103.972L171.505 112.838H170.471L171.659 109.934L169.228 103.972H170.339L172.231 108.856L174.101 103.972H175.135ZM181.505 110.077C180.999 110.077 180.544 109.989 180.141 109.813C179.745 109.63 179.433 109.38 179.206 109.065C178.978 108.742 178.861 108.372 178.854 107.954H179.921C179.957 108.313 180.104 108.618 180.361 108.867C180.625 109.109 181.006 109.23 181.505 109.23C181.981 109.23 182.355 109.113 182.627 108.878C182.905 108.636 183.045 108.328 183.045 107.954C183.045 107.661 182.964 107.422 182.803 107.239C182.641 107.056 182.44 106.916 182.198 106.821C181.956 106.726 181.629 106.623 181.219 106.513C180.713 106.381 180.306 106.249 179.998 106.117C179.697 105.985 179.437 105.78 179.217 105.501C179.004 105.215 178.898 104.834 178.898 104.357C178.898 103.939 179.004 103.569 179.217 103.246C179.429 102.923 179.726 102.674 180.108 102.498C180.496 102.322 180.94 102.234 181.439 102.234C182.157 102.234 182.744 102.414 183.199 102.773C183.661 103.132 183.921 103.609 183.98 104.203H182.88C182.843 103.91 182.689 103.653 182.418 103.433C182.146 103.206 181.787 103.092 181.34 103.092C180.922 103.092 180.581 103.202 180.317 103.422C180.053 103.635 179.921 103.935 179.921 104.324C179.921 104.603 179.998 104.83 180.152 105.006C180.313 105.182 180.507 105.318 180.735 105.413C180.969 105.501 181.296 105.604 181.714 105.721C182.22 105.86 182.627 106 182.935 106.139C183.243 106.271 183.507 106.48 183.727 106.766C183.947 107.045 184.057 107.426 184.057 107.91C184.057 108.284 183.958 108.636 183.76 108.966C183.562 109.296 183.268 109.564 182.88 109.769C182.491 109.974 182.033 110.077 181.505 110.077ZM188.522 103.862C188.976 103.862 189.387 103.961 189.754 104.159C190.12 104.35 190.406 104.639 190.612 105.028C190.824 105.417 190.931 105.89 190.931 106.447V110H189.941V106.59C189.941 105.989 189.79 105.53 189.49 105.215C189.189 104.892 188.778 104.731 188.258 104.731C187.73 104.731 187.308 104.896 186.993 105.226C186.685 105.556 186.531 106.036 186.531 106.667V110H185.53V101.86H186.531V104.83C186.729 104.522 187 104.284 187.345 104.115C187.697 103.946 188.089 103.862 188.522 103.862ZM193.083 102.993C192.892 102.993 192.731 102.927 192.599 102.795C192.467 102.663 192.401 102.502 192.401 102.311C192.401 102.12 192.467 101.959 192.599 101.827C192.731 101.695 192.892 101.629 193.083 101.629C193.266 101.629 193.42 101.695 193.545 101.827C193.677 101.959 193.743 102.12 193.743 102.311C193.743 102.502 193.677 102.663 193.545 102.795C193.42 102.927 193.266 102.993 193.083 102.993ZM193.567 103.972V110H192.566V103.972H193.567ZM198.21 103.862C198.943 103.862 199.537 104.086 199.992 104.533C200.446 104.973 200.674 105.611 200.674 106.447V110H199.684V106.59C199.684 105.989 199.533 105.53 199.233 105.215C198.932 104.892 198.521 104.731 198.001 104.731C197.473 104.731 197.051 104.896 196.736 105.226C196.428 105.556 196.274 106.036 196.274 106.667V110H195.273V103.972H196.274V104.83C196.472 104.522 196.739 104.284 197.077 104.115C197.421 103.946 197.799 103.862 198.21 103.862ZM207.809 106.755C207.809 106.946 207.798 107.147 207.776 107.36H202.958C202.995 107.954 203.196 108.42 203.563 108.757C203.937 109.087 204.388 109.252 204.916 109.252C205.349 109.252 205.708 109.153 205.994 108.955C206.287 108.75 206.493 108.478 206.61 108.141H207.688C207.527 108.72 207.204 109.193 206.72 109.56C206.236 109.919 205.635 110.099 204.916 110.099C204.344 110.099 203.831 109.971 203.376 109.714C202.929 109.457 202.577 109.094 202.32 108.625C202.063 108.148 201.935 107.598 201.935 106.975C201.935 106.352 202.06 105.805 202.309 105.336C202.558 104.867 202.907 104.507 203.354 104.258C203.809 104.001 204.329 103.873 204.916 103.873C205.488 103.873 205.994 103.998 206.434 104.247C206.874 104.496 207.211 104.841 207.446 105.281C207.688 105.714 207.809 106.205 207.809 106.755ZM206.775 106.546C206.775 106.165 206.691 105.838 206.522 105.567C206.353 105.288 206.122 105.079 205.829 104.94C205.543 104.793 205.224 104.72 204.872 104.72C204.366 104.72 203.933 104.881 203.574 105.204C203.222 105.527 203.02 105.974 202.969 106.546H206.775ZM211.264 110.099C210.802 110.099 210.388 110.022 210.021 109.868C209.655 109.707 209.365 109.487 209.152 109.208C208.94 108.922 208.822 108.596 208.8 108.229H209.834C209.864 108.53 210.003 108.775 210.252 108.966C210.509 109.157 210.843 109.252 211.253 109.252C211.635 109.252 211.935 109.168 212.155 108.999C212.375 108.83 212.485 108.618 212.485 108.361C212.485 108.097 212.368 107.903 212.133 107.778C211.899 107.646 211.536 107.518 211.044 107.393C210.597 107.276 210.23 107.158 209.944 107.041C209.666 106.916 209.424 106.737 209.218 106.502C209.02 106.26 208.921 105.945 208.921 105.556C208.921 105.248 209.013 104.966 209.196 104.709C209.38 104.452 209.64 104.251 209.977 104.104C210.315 103.95 210.7 103.873 211.132 103.873C211.8 103.873 212.339 104.042 212.749 104.379C213.16 104.716 213.38 105.178 213.409 105.765H212.408C212.386 105.45 212.258 105.197 212.023 105.006C211.796 104.815 211.488 104.72 211.099 104.72C210.74 104.72 210.454 104.797 210.241 104.951C210.029 105.105 209.922 105.307 209.922 105.556C209.922 105.754 209.985 105.919 210.109 106.051C210.241 106.176 210.403 106.278 210.593 106.359C210.791 106.432 211.063 106.517 211.407 106.612C211.84 106.729 212.192 106.847 212.463 106.964C212.735 107.074 212.966 107.243 213.156 107.47C213.354 107.697 213.457 107.994 213.464 108.361C213.464 108.691 213.373 108.988 213.189 109.252C213.006 109.516 212.746 109.725 212.408 109.879C212.078 110.026 211.697 110.099 211.264 110.099ZM222.529 102.333V103.147H220.439V110H219.438V103.147H217.337V102.333H222.529ZM226.753 103.862C227.208 103.862 227.618 103.961 227.985 104.159C228.352 104.35 228.638 104.639 228.843 105.028C229.056 105.417 229.162 105.89 229.162 106.447V110H228.172V106.59C228.172 105.989 228.022 105.53 227.721 105.215C227.42 104.892 227.01 104.731 226.489 104.731C225.961 104.731 225.539 104.896 225.224 105.226C224.916 105.556 224.762 106.036 224.762 106.667V110H223.761V101.86H224.762V104.83C224.96 104.522 225.231 104.284 225.576 104.115C225.928 103.946 226.32 103.862 226.753 103.862ZM231.798 104.951C231.974 104.606 232.224 104.339 232.546 104.148C232.876 103.957 233.276 103.862 233.745 103.862V104.896H233.481C232.359 104.896 231.798 105.505 231.798 106.722V110H230.797V103.972H231.798V104.951ZM237.53 110.099C236.965 110.099 236.452 109.971 235.99 109.714C235.535 109.457 235.176 109.094 234.912 108.625C234.655 108.148 234.527 107.598 234.527 106.975C234.527 106.359 234.659 105.816 234.923 105.347C235.194 104.87 235.561 104.507 236.023 104.258C236.485 104.001 237.002 103.873 237.574 103.873C238.146 103.873 238.663 104.001 239.125 104.258C239.587 104.507 239.95 104.867 240.214 105.336C240.485 105.805 240.621 106.352 240.621 106.975C240.621 107.598 240.481 108.148 240.203 108.625C239.931 109.094 239.561 109.457 239.092 109.714C238.622 109.971 238.102 110.099 237.53 110.099ZM237.53 109.219C237.889 109.219 238.226 109.135 238.542 108.966C238.857 108.797 239.11 108.544 239.301 108.207C239.499 107.87 239.598 107.459 239.598 106.975C239.598 106.491 239.502 106.08 239.312 105.743C239.121 105.406 238.872 105.156 238.564 104.995C238.256 104.826 237.922 104.742 237.563 104.742C237.196 104.742 236.859 104.826 236.551 104.995C236.25 105.156 236.008 105.406 235.825 105.743C235.641 106.08 235.55 106.491 235.55 106.975C235.55 107.466 235.638 107.881 235.814 108.218C235.997 108.555 236.239 108.808 236.54 108.977C236.84 109.138 237.17 109.219 237.53 109.219ZM247.283 103.972V110H246.282V109.109C246.091 109.417 245.824 109.659 245.479 109.835C245.142 110.004 244.768 110.088 244.357 110.088C243.888 110.088 243.466 109.993 243.092 109.802C242.718 109.604 242.421 109.311 242.201 108.922C241.988 108.533 241.882 108.06 241.882 107.503V103.972H242.872V107.371C242.872 107.965 243.022 108.423 243.323 108.746C243.624 109.061 244.034 109.219 244.555 109.219C245.09 109.219 245.512 109.054 245.82 108.724C246.128 108.394 246.282 107.914 246.282 107.283V103.972H247.283ZM251.459 103.873C251.98 103.873 252.434 103.987 252.823 104.214C253.219 104.441 253.512 104.727 253.703 105.072V103.972H254.715V110.132C254.715 110.682 254.598 111.17 254.363 111.595C254.128 112.028 253.791 112.365 253.351 112.607C252.918 112.849 252.412 112.97 251.833 112.97C251.041 112.97 250.381 112.783 249.853 112.409C249.325 112.035 249.013 111.525 248.918 110.88H249.908C250.018 111.247 250.245 111.54 250.59 111.76C250.935 111.987 251.349 112.101 251.833 112.101C252.383 112.101 252.83 111.929 253.175 111.584C253.527 111.239 253.703 110.755 253.703 110.132V108.867C253.505 109.219 253.212 109.512 252.823 109.747C252.434 109.982 251.98 110.099 251.459 110.099C250.924 110.099 250.436 109.967 249.996 109.703C249.563 109.439 249.222 109.069 248.973 108.592C248.724 108.115 248.599 107.573 248.599 106.964C248.599 106.348 248.724 105.809 248.973 105.347C249.222 104.878 249.563 104.515 249.996 104.258C250.436 104.001 250.924 103.873 251.459 103.873ZM253.703 106.975C253.703 106.52 253.611 106.124 253.428 105.787C253.245 105.45 252.995 105.193 252.68 105.017C252.372 104.834 252.031 104.742 251.657 104.742C251.283 104.742 250.942 104.83 250.634 105.006C250.326 105.182 250.08 105.439 249.897 105.776C249.714 106.113 249.622 106.509 249.622 106.964C249.622 107.426 249.714 107.829 249.897 108.174C250.08 108.511 250.326 108.772 250.634 108.955C250.942 109.131 251.283 109.219 251.657 109.219C252.031 109.219 252.372 109.131 252.68 108.955C252.995 108.772 253.245 108.511 253.428 108.174C253.611 107.829 253.703 107.43 253.703 106.975ZM259.399 103.862C259.853 103.862 260.264 103.961 260.631 104.159C260.997 104.35 261.283 104.639 261.489 105.028C261.701 105.417 261.808 105.89 261.808 106.447V110H260.818V106.59C260.818 105.989 260.667 105.53 260.367 105.215C260.066 104.892 259.655 104.731 259.135 104.731C258.607 104.731 258.185 104.896 257.87 105.226C257.562 105.556 257.408 106.036 257.408 106.667V110H256.407V101.86H257.408V104.83C257.606 104.522 257.877 104.284 258.222 104.115C258.574 103.946 258.966 103.862 259.399 103.862ZM267.376 103.147V105.71H270.17V106.535H267.376V109.175H270.5V110H266.375V102.322H270.5V103.147H267.376ZM274.259 109.076L276.129 103.972H277.196L274.831 110H273.665L271.3 103.972H272.378L274.259 109.076ZM283.681 106.755C283.681 106.946 283.67 107.147 283.648 107.36H278.83C278.867 107.954 279.068 108.42 279.435 108.757C279.809 109.087 280.26 109.252 280.788 109.252C281.221 109.252 281.58 109.153 281.866 108.955C282.159 108.75 282.365 108.478 282.482 108.141H283.56C283.399 108.72 283.076 109.193 282.592 109.56C282.108 109.919 281.507 110.099 280.788 110.099C280.216 110.099 279.703 109.971 279.248 109.714C278.801 109.457 278.449 109.094 278.192 108.625C277.935 108.148 277.807 107.598 277.807 106.975C277.807 106.352 277.932 105.805 278.181 105.336C278.43 104.867 278.779 104.507 279.226 104.258C279.681 104.001 280.201 103.873 280.788 103.873C281.36 103.873 281.866 103.998 282.306 104.247C282.746 104.496 283.083 104.841 283.318 105.281C283.56 105.714 283.681 106.205 283.681 106.755ZM282.647 106.546C282.647 106.165 282.563 105.838 282.394 105.567C282.225 105.288 281.994 105.079 281.701 104.94C281.415 104.793 281.096 104.72 280.744 104.72C280.238 104.72 279.805 104.881 279.446 105.204C279.094 105.527 278.892 105.974 278.841 106.546H282.647ZM286.003 104.951C286.179 104.606 286.429 104.339 286.751 104.148C287.081 103.957 287.481 103.862 287.95 103.862V104.896H287.686C286.564 104.896 286.003 105.505 286.003 106.722V110H285.002V103.972H286.003V104.951ZM294.298 103.972L290.668 112.838H289.634L290.822 109.934L288.391 103.972H289.502L291.394 108.856L293.264 103.972H294.298ZM76.3158 121.333V129H75.3148V121.333H76.3158ZM77.6478 125.975C77.6478 125.352 77.7725 124.809 78.0218 124.347C78.2711 123.878 78.6158 123.515 79.0558 123.258C79.5031 123.001 80.0128 122.873 80.5848 122.873C81.3255 122.873 81.9341 123.053 82.4108 123.412C82.8948 123.771 83.2138 124.27 83.3678 124.908H82.2898C82.1871 124.541 81.9855 124.252 81.6848 124.039C81.3915 123.826 81.0248 123.72 80.5848 123.72C80.0128 123.72 79.5508 123.918 79.1988 124.314C78.8468 124.703 78.6708 125.256 78.6708 125.975C78.6708 126.701 78.8468 127.262 79.1988 127.658C79.5508 128.054 80.0128 128.252 80.5848 128.252C81.0248 128.252 81.3915 128.149 81.6848 127.944C81.9781 127.739 82.1798 127.445 82.2898 127.064H83.3678C83.2065 127.68 82.8838 128.175 82.3998 128.549C81.9158 128.916 81.3108 129.099 80.5848 129.099C80.0128 129.099 79.5031 128.971 79.0558 128.714C78.6158 128.457 78.2711 128.094 78.0218 127.625C77.7725 127.156 77.6478 126.606 77.6478 125.975ZM87.3324 129.099C86.7678 129.099 86.2544 128.971 85.7924 128.714C85.3378 128.457 84.9784 128.094 84.7144 127.625C84.4578 127.148 84.3294 126.598 84.3294 125.975C84.3294 125.359 84.4614 124.816 84.7254 124.347C84.9968 123.87 85.3634 123.507 85.8254 123.258C86.2874 123.001 86.8044 122.873 87.3764 122.873C87.9484 122.873 88.4654 123.001 88.9274 123.258C89.3894 123.507 89.7524 123.867 90.0164 124.336C90.2878 124.805 90.4234 125.352 90.4234 125.975C90.4234 126.598 90.2841 127.148 90.0054 127.625C89.7341 128.094 89.3638 128.457 88.8944 128.714C88.4251 128.971 87.9044 129.099 87.3324 129.099ZM87.3324 128.219C87.6918 128.219 88.0291 128.135 88.3444 127.966C88.6598 127.797 88.9128 127.544 89.1034 127.207C89.3014 126.87 89.4004 126.459 89.4004 125.975C89.4004 125.491 89.3051 125.08 89.1144 124.743C88.9238 124.406 88.6744 124.156 88.3664 123.995C88.0584 123.826 87.7248 123.742 87.3654 123.742C86.9988 123.742 86.6614 123.826 86.3534 123.995C86.0528 124.156 85.8108 124.406 85.6274 124.743C85.4441 125.08 85.3524 125.491 85.3524 125.975C85.3524 126.466 85.4404 126.881 85.6164 127.218C85.7998 127.555 86.0418 127.808 86.3424 127.977C86.6431 128.138 86.9731 128.219 87.3324 128.219ZM94.6766 122.862C95.4099 122.862 96.0039 123.086 96.4586 123.533C96.9132 123.973 97.1406 124.611 97.1406 125.447V129H96.1506V125.59C96.1506 124.989 96.0002 124.53 95.6996 124.215C95.3989 123.892 94.9882 123.731 94.4676 123.731C93.9396 123.731 93.5179 123.896 93.2026 124.226C92.8946 124.556 92.7406 125.036 92.7406 125.667V129H91.7396V122.972H92.7406V123.83C92.9386 123.522 93.2062 123.284 93.5436 123.115C93.8882 122.946 94.2659 122.862 94.6766 122.862ZM108.044 121.333L105.151 129H103.996L101.103 121.333H102.17L104.579 127.944L106.988 121.333H108.044ZM108.768 125.964C108.768 125.348 108.893 124.809 109.142 124.347C109.391 123.878 109.732 123.515 110.165 123.258C110.605 123.001 111.093 122.873 111.628 122.873C112.156 122.873 112.614 122.987 113.003 123.214C113.392 123.441 113.681 123.727 113.872 124.072V122.972H114.884V129H113.872V127.878C113.674 128.23 113.377 128.523 112.981 128.758C112.592 128.985 112.138 129.099 111.617 129.099C111.082 129.099 110.598 128.967 110.165 128.703C109.732 128.439 109.391 128.069 109.142 127.592C108.893 127.115 108.768 126.573 108.768 125.964ZM113.872 125.975C113.872 125.52 113.78 125.124 113.597 124.787C113.414 124.45 113.164 124.193 112.849 124.017C112.541 123.834 112.2 123.742 111.826 123.742C111.452 123.742 111.111 123.83 110.803 124.006C110.495 124.182 110.249 124.439 110.066 124.776C109.883 125.113 109.791 125.509 109.791 125.964C109.791 126.426 109.883 126.829 110.066 127.174C110.249 127.511 110.495 127.772 110.803 127.955C111.111 128.131 111.452 128.219 111.826 128.219C112.2 128.219 112.541 128.131 112.849 127.955C113.164 127.772 113.414 127.511 113.597 127.174C113.78 126.829 113.872 126.43 113.872 125.975ZM117.093 121.993C116.902 121.993 116.741 121.927 116.609 121.795C116.477 121.663 116.411 121.502 116.411 121.311C116.411 121.12 116.477 120.959 116.609 120.827C116.741 120.695 116.902 120.629 117.093 120.629C117.276 120.629 117.43 120.695 117.555 120.827C117.687 120.959 117.753 121.12 117.753 121.311C117.753 121.502 117.687 121.663 117.555 121.795C117.43 121.927 117.276 121.993 117.093 121.993ZM117.577 122.972V129H116.576V122.972H117.577ZM120.284 124.094C120.489 123.735 120.79 123.441 121.186 123.214C121.582 122.987 122.033 122.873 122.539 122.873C123.081 122.873 123.569 123.001 124.002 123.258C124.434 123.515 124.775 123.878 125.025 124.347C125.274 124.809 125.399 125.348 125.399 125.964C125.399 126.573 125.274 127.115 125.025 127.592C124.775 128.069 124.431 128.439 123.991 128.703C123.558 128.967 123.074 129.099 122.539 129.099C122.018 129.099 121.56 128.985 121.164 128.758C120.775 128.531 120.482 128.241 120.284 127.889V129H119.283V120.86H120.284V124.094ZM124.376 125.964C124.376 125.509 124.284 125.113 124.101 124.776C123.917 124.439 123.668 124.182 123.353 124.006C123.045 123.83 122.704 123.742 122.33 123.742C121.963 123.742 121.622 123.834 121.307 124.017C120.999 124.193 120.749 124.453 120.559 124.798C120.375 125.135 120.284 125.528 120.284 125.975C120.284 126.43 120.375 126.829 120.559 127.174C120.749 127.511 120.999 127.772 121.307 127.955C121.622 128.131 121.963 128.219 122.33 128.219C122.704 128.219 123.045 128.131 123.353 127.955C123.668 127.772 123.917 127.511 124.101 127.174C124.284 126.829 124.376 126.426 124.376 125.964ZM129.708 122.862C130.163 122.862 130.573 122.961 130.94 123.159C131.307 123.35 131.593 123.639 131.798 124.028C132.011 124.417 132.117 124.89 132.117 125.447V129H131.127V125.59C131.127 124.989 130.977 124.53 130.676 124.215C130.375 123.892 129.965 123.731 129.444 123.731C128.916 123.731 128.494 123.896 128.179 124.226C127.871 124.556 127.717 125.036 127.717 125.667V129H126.716V120.86H127.717V123.83C127.915 123.522 128.186 123.284 128.531 123.115C128.883 122.946 129.275 122.862 129.708 122.862ZM133.378 125.964C133.378 125.348 133.503 124.809 133.752 124.347C134.002 123.878 134.343 123.515 134.775 123.258C135.215 123.001 135.703 122.873 136.238 122.873C136.766 122.873 137.225 122.987 137.613 123.214C138.002 123.441 138.292 123.727 138.482 124.072V122.972H139.494V129H138.482V127.878C138.284 128.23 137.987 128.523 137.591 128.758C137.203 128.985 136.748 129.099 136.227 129.099C135.692 129.099 135.208 128.967 134.775 128.703C134.343 128.439 134.002 128.069 133.752 127.592C133.503 127.115 133.378 126.573 133.378 125.964ZM138.482 125.975C138.482 125.52 138.391 125.124 138.207 124.787C138.024 124.45 137.775 124.193 137.459 124.017C137.151 123.834 136.81 123.742 136.436 123.742C136.062 123.742 135.721 123.83 135.413 124.006C135.105 124.182 134.86 124.439 134.676 124.776C134.493 125.113 134.401 125.509 134.401 125.964C134.401 126.426 134.493 126.829 134.676 127.174C134.86 127.511 135.105 127.772 135.413 127.955C135.721 128.131 136.062 128.219 136.436 128.219C136.81 128.219 137.151 128.131 137.459 127.955C137.775 127.772 138.024 127.511 138.207 127.174C138.391 126.829 138.482 126.43 138.482 125.975ZM143.43 128.076L145.3 122.972H146.367L144.002 129H142.836L140.471 122.972H141.549L143.43 128.076ZM152.671 121.333C153.508 121.333 154.23 121.491 154.839 121.806C155.455 122.114 155.924 122.558 156.247 123.137C156.577 123.716 156.742 124.398 156.742 125.183C156.742 125.968 156.577 126.65 156.247 127.229C155.924 127.801 155.455 128.241 154.839 128.549C154.23 128.85 153.508 129 152.671 129H150.285V121.333H152.671ZM152.671 128.175C153.662 128.175 154.417 127.915 154.938 127.394C155.458 126.866 155.719 126.129 155.719 125.183C155.719 124.23 155.455 123.485 154.927 122.95C154.406 122.415 153.654 122.147 152.671 122.147H151.286V128.175H152.671ZM163.562 125.755C163.562 125.946 163.551 126.147 163.529 126.36H158.711C158.748 126.954 158.949 127.42 159.316 127.757C159.69 128.087 160.141 128.252 160.669 128.252C161.102 128.252 161.461 128.153 161.747 127.955C162.04 127.75 162.246 127.478 162.363 127.141H163.441C163.28 127.72 162.957 128.193 162.473 128.56C161.989 128.919 161.388 129.099 160.669 129.099C160.097 129.099 159.584 128.971 159.129 128.714C158.682 128.457 158.33 128.094 158.073 127.625C157.816 127.148 157.688 126.598 157.688 125.975C157.688 125.352 157.813 124.805 158.062 124.336C158.311 123.867 158.66 123.507 159.107 123.258C159.562 123.001 160.082 122.873 160.669 122.873C161.241 122.873 161.747 122.998 162.187 123.247C162.627 123.496 162.964 123.841 163.199 124.281C163.441 124.714 163.562 125.205 163.562 125.755ZM162.528 125.546C162.528 125.165 162.444 124.838 162.275 124.567C162.106 124.288 161.875 124.079 161.582 123.94C161.296 123.793 160.977 123.72 160.625 123.72C160.119 123.72 159.686 123.881 159.327 124.204C158.975 124.527 158.773 124.974 158.722 125.546H162.528ZM167.017 129.099C166.555 129.099 166.141 129.022 165.774 128.868C165.407 128.707 165.118 128.487 164.905 128.208C164.692 127.922 164.575 127.596 164.553 127.229H165.587C165.616 127.53 165.756 127.775 166.005 127.966C166.262 128.157 166.595 128.252 167.006 128.252C167.387 128.252 167.688 128.168 167.908 127.999C168.128 127.83 168.238 127.618 168.238 127.361C168.238 127.097 168.121 126.903 167.886 126.778C167.651 126.646 167.288 126.518 166.797 126.393C166.35 126.276 165.983 126.158 165.697 126.041C165.418 125.916 165.176 125.737 164.971 125.502C164.773 125.26 164.674 124.945 164.674 124.556C164.674 124.248 164.766 123.966 164.949 123.709C165.132 123.452 165.393 123.251 165.73 123.104C166.067 122.95 166.452 122.873 166.885 122.873C167.552 122.873 168.091 123.042 168.502 123.379C168.913 123.716 169.133 124.178 169.162 124.765H168.161C168.139 124.45 168.011 124.197 167.776 124.006C167.549 123.815 167.241 123.72 166.852 123.72C166.493 123.72 166.207 123.797 165.994 123.951C165.781 124.105 165.675 124.307 165.675 124.556C165.675 124.754 165.737 124.919 165.862 125.051C165.994 125.176 166.155 125.278 166.346 125.359C166.544 125.432 166.815 125.517 167.16 125.612C167.593 125.729 167.945 125.847 168.216 125.964C168.487 126.074 168.718 126.243 168.909 126.47C169.107 126.697 169.21 126.994 169.217 127.361C169.217 127.691 169.125 127.988 168.942 128.252C168.759 128.516 168.498 128.725 168.161 128.879C167.831 129.026 167.45 129.099 167.017 129.099ZM171.147 121.993C170.957 121.993 170.795 121.927 170.663 121.795C170.531 121.663 170.465 121.502 170.465 121.311C170.465 121.12 170.531 120.959 170.663 120.827C170.795 120.695 170.957 120.629 171.147 120.629C171.331 120.629 171.485 120.695 171.609 120.827C171.741 120.959 171.807 121.12 171.807 121.311C171.807 121.502 171.741 121.663 171.609 121.795C171.485 121.927 171.331 121.993 171.147 121.993ZM171.631 122.972V129H170.63V122.972H171.631ZM175.823 122.873C176.344 122.873 176.799 122.987 177.187 123.214C177.583 123.441 177.877 123.727 178.067 124.072V122.972H179.079V129.132C179.079 129.682 178.962 130.17 178.727 130.595C178.493 131.028 178.155 131.365 177.715 131.607C177.283 131.849 176.777 131.97 176.197 131.97C175.405 131.97 174.745 131.783 174.217 131.409C173.689 131.035 173.378 130.525 173.282 129.88H174.272C174.382 130.247 174.61 130.54 174.954 130.76C175.299 130.987 175.713 131.101 176.197 131.101C176.747 131.101 177.195 130.929 177.539 130.584C177.891 130.239 178.067 129.755 178.067 129.132V127.867C177.869 128.219 177.576 128.512 177.187 128.747C176.799 128.982 176.344 129.099 175.823 129.099C175.288 129.099 174.8 128.967 174.36 128.703C173.928 128.439 173.587 128.069 173.337 127.592C173.088 127.115 172.963 126.573 172.963 125.964C172.963 125.348 173.088 124.809 173.337 124.347C173.587 123.878 173.928 123.515 174.36 123.258C174.8 123.001 175.288 122.873 175.823 122.873ZM178.067 125.975C178.067 125.52 177.976 125.124 177.792 124.787C177.609 124.45 177.36 124.193 177.044 124.017C176.736 123.834 176.395 123.742 176.021 123.742C175.647 123.742 175.306 123.83 174.998 124.006C174.69 124.182 174.445 124.439 174.261 124.776C174.078 125.113 173.986 125.509 173.986 125.964C173.986 126.426 174.078 126.829 174.261 127.174C174.445 127.511 174.69 127.772 174.998 127.955C175.306 128.131 175.647 128.219 176.021 128.219C176.395 128.219 176.736 128.131 177.044 127.955C177.36 127.772 177.609 127.511 177.792 127.174C177.976 126.829 178.067 126.43 178.067 125.975ZM183.708 122.862C184.441 122.862 185.035 123.086 185.49 123.533C185.944 123.973 186.172 124.611 186.172 125.447V129H185.182V125.59C185.182 124.989 185.031 124.53 184.731 124.215C184.43 123.892 184.019 123.731 183.499 123.731C182.971 123.731 182.549 123.896 182.234 124.226C181.926 124.556 181.772 125.036 181.772 125.667V129H180.771V122.972H181.772V123.83C181.97 123.522 182.237 123.284 182.575 123.115C182.919 122.946 183.297 122.862 183.708 122.862ZM193.307 125.755C193.307 125.946 193.296 126.147 193.274 126.36H188.456C188.493 126.954 188.694 127.42 189.061 127.757C189.435 128.087 189.886 128.252 190.414 128.252C190.847 128.252 191.206 128.153 191.492 127.955C191.785 127.75 191.991 127.478 192.108 127.141H193.186C193.025 127.72 192.702 128.193 192.218 128.56C191.734 128.919 191.133 129.099 190.414 129.099C189.842 129.099 189.329 128.971 188.874 128.714C188.427 128.457 188.075 128.094 187.818 127.625C187.561 127.148 187.433 126.598 187.433 125.975C187.433 125.352 187.558 124.805 187.807 124.336C188.056 123.867 188.405 123.507 188.852 123.258C189.307 123.001 189.827 122.873 190.414 122.873C190.986 122.873 191.492 122.998 191.932 123.247C192.372 123.496 192.709 123.841 192.944 124.281C193.186 124.714 193.307 125.205 193.307 125.755ZM192.273 125.546C192.273 125.165 192.189 124.838 192.02 124.567C191.851 124.288 191.62 124.079 191.327 123.94C191.041 123.793 190.722 123.72 190.37 123.72C189.864 123.72 189.431 123.881 189.072 124.204C188.72 124.527 188.518 124.974 188.467 125.546H192.273ZM194.254 125.964C194.254 125.348 194.379 124.809 194.628 124.347C194.878 123.878 195.219 123.515 195.651 123.258C196.091 123.001 196.583 122.873 197.125 122.873C197.595 122.873 198.031 122.983 198.434 123.203C198.838 123.416 199.146 123.698 199.358 124.05V120.86H200.37V129H199.358V127.867C199.16 128.226 198.867 128.523 198.478 128.758C198.09 128.985 197.635 129.099 197.114 129.099C196.579 129.099 196.091 128.967 195.651 128.703C195.219 128.439 194.878 128.069 194.628 127.592C194.379 127.115 194.254 126.573 194.254 125.964ZM199.358 125.975C199.358 125.52 199.267 125.124 199.083 124.787C198.9 124.45 198.651 124.193 198.335 124.017C198.027 123.834 197.686 123.742 197.312 123.742C196.938 123.742 196.597 123.83 196.289 124.006C195.981 124.182 195.736 124.439 195.552 124.776C195.369 125.113 195.277 125.509 195.277 125.964C195.277 126.426 195.369 126.829 195.552 127.174C195.736 127.511 195.981 127.772 196.289 127.955C196.597 128.131 196.938 128.219 197.312 128.219C197.686 128.219 198.027 128.131 198.335 127.955C198.651 127.772 198.9 127.511 199.083 127.174C199.267 126.829 199.358 126.43 199.358 125.975ZM202.381 129.066C202.19 129.066 202.029 129 201.897 128.868C201.765 128.736 201.699 128.575 201.699 128.384C201.699 128.193 201.765 128.032 201.897 127.9C202.029 127.768 202.19 127.702 202.381 127.702C202.564 127.702 202.718 127.768 202.843 127.9C202.975 128.032 203.041 128.193 203.041 128.384C203.041 128.575 202.975 128.736 202.843 128.868C202.718 129 202.564 129.066 202.381 129.066ZM208.305 121.333V129H207.304V121.333H208.305ZM217.26 122.862C217.729 122.862 218.147 122.961 218.514 123.159C218.881 123.35 219.17 123.639 219.383 124.028C219.596 124.417 219.702 124.89 219.702 125.447V129H218.712V125.59C218.712 124.989 218.562 124.53 218.261 124.215C217.968 123.892 217.568 123.731 217.062 123.731C216.541 123.731 216.127 123.9 215.819 124.237C215.511 124.567 215.357 125.047 215.357 125.678V129H214.367V125.59C214.367 124.989 214.217 124.53 213.916 124.215C213.623 123.892 213.223 123.731 212.717 123.731C212.196 123.731 211.782 123.9 211.474 124.237C211.166 124.567 211.012 125.047 211.012 125.678V129H210.011V122.972H211.012V123.841C211.21 123.526 211.474 123.284 211.804 123.115C212.141 122.946 212.512 122.862 212.915 122.862C213.421 122.862 213.868 122.976 214.257 123.203C214.646 123.43 214.935 123.764 215.126 124.204C215.295 123.779 215.573 123.449 215.962 123.214C216.351 122.979 216.783 122.862 217.26 122.862ZM222.345 124.083C222.543 123.738 222.836 123.452 223.225 123.225C223.621 122.99 224.079 122.873 224.6 122.873C225.135 122.873 225.619 123.001 226.052 123.258C226.492 123.515 226.837 123.878 227.086 124.347C227.335 124.809 227.46 125.348 227.46 125.964C227.46 126.573 227.335 127.115 227.086 127.592C226.837 128.069 226.492 128.439 226.052 128.703C225.619 128.967 225.135 129.099 224.6 129.099C224.087 129.099 223.632 128.985 223.236 128.758C222.847 128.523 222.55 128.234 222.345 127.889V131.86H221.344V122.972H222.345V124.083ZM226.437 125.964C226.437 125.509 226.345 125.113 226.162 124.776C225.979 124.439 225.729 124.182 225.414 124.006C225.106 123.83 224.765 123.742 224.391 123.742C224.024 123.742 223.683 123.834 223.368 124.017C223.06 124.193 222.811 124.453 222.62 124.798C222.437 125.135 222.345 125.528 222.345 125.975C222.345 126.43 222.437 126.829 222.62 127.174C222.811 127.511 223.06 127.772 223.368 127.955C223.683 128.131 224.024 128.219 224.391 128.219C224.765 128.219 225.106 128.131 225.414 127.955C225.729 127.772 225.979 127.511 226.162 127.174C226.345 126.829 226.437 126.426 226.437 125.964ZM229.779 123.951C229.955 123.606 230.204 123.339 230.527 123.148C230.857 122.957 231.256 122.862 231.726 122.862V123.896H231.462C230.34 123.896 229.779 124.505 229.779 125.722V129H228.778V122.972H229.779V123.951ZM238.381 125.755C238.381 125.946 238.37 126.147 238.348 126.36H233.53C233.567 126.954 233.769 127.42 234.135 127.757C234.509 128.087 234.96 128.252 235.488 128.252C235.921 128.252 236.28 128.153 236.566 127.955C236.86 127.75 237.065 127.478 237.182 127.141H238.26C238.099 127.72 237.776 128.193 237.292 128.56C236.808 128.919 236.207 129.099 235.488 129.099C234.916 129.099 234.403 128.971 233.948 128.714C233.501 128.457 233.149 128.094 232.892 127.625C232.636 127.148 232.507 126.598 232.507 125.975C232.507 125.352 232.632 124.805 232.881 124.336C233.131 123.867 233.479 123.507 233.926 123.258C234.381 123.001 234.902 122.873 235.488 122.873C236.06 122.873 236.566 122.998 237.006 123.247C237.446 123.496 237.784 123.841 238.018 124.281C238.26 124.714 238.381 125.205 238.381 125.755ZM237.347 125.546C237.347 125.165 237.263 124.838 237.094 124.567C236.926 124.288 236.695 124.079 236.401 123.94C236.115 123.793 235.796 123.72 235.444 123.72C234.938 123.72 234.506 123.881 234.146 124.204C233.794 124.527 233.593 124.974 233.541 125.546H237.347ZM241.836 129.099C241.374 129.099 240.96 129.022 240.593 128.868C240.227 128.707 239.937 128.487 239.724 128.208C239.512 127.922 239.394 127.596 239.372 127.229H240.406C240.436 127.53 240.575 127.775 240.824 127.966C241.081 128.157 241.415 128.252 241.825 128.252C242.207 128.252 242.507 128.168 242.727 127.999C242.947 127.83 243.057 127.618 243.057 127.361C243.057 127.097 242.94 126.903 242.705 126.778C242.471 126.646 242.108 126.518 241.616 126.393C241.169 126.276 240.802 126.158 240.516 126.041C240.238 125.916 239.996 125.737 239.79 125.502C239.592 125.26 239.493 124.945 239.493 124.556C239.493 124.248 239.585 123.966 239.768 123.709C239.952 123.452 240.212 123.251 240.549 123.104C240.887 122.95 241.272 122.873 241.704 122.873C242.372 122.873 242.911 123.042 243.321 123.379C243.732 123.716 243.952 124.178 243.981 124.765H242.98C242.958 124.45 242.83 124.197 242.595 124.006C242.368 123.815 242.06 123.72 241.671 123.72C241.312 123.72 241.026 123.797 240.813 123.951C240.601 124.105 240.494 124.307 240.494 124.556C240.494 124.754 240.557 124.919 240.681 125.051C240.813 125.176 240.975 125.278 241.165 125.359C241.363 125.432 241.635 125.517 241.979 125.612C242.412 125.729 242.764 125.847 243.035 125.964C243.307 126.074 243.538 126.243 243.728 126.47C243.926 126.697 244.029 126.994 244.036 127.361C244.036 127.691 243.945 127.988 243.761 128.252C243.578 128.516 243.318 128.725 242.98 128.879C242.65 129.026 242.269 129.099 241.836 129.099ZM247.584 129.099C247.122 129.099 246.707 129.022 246.341 128.868C245.974 128.707 245.684 128.487 245.472 128.208C245.259 127.922 245.142 127.596 245.12 127.229H246.154C246.183 127.53 246.322 127.775 246.572 127.966C246.828 128.157 247.162 128.252 247.573 128.252C247.954 128.252 248.255 128.168 248.475 127.999C248.695 127.83 248.805 127.618 248.805 127.361C248.805 127.097 248.687 126.903 248.453 126.778C248.218 126.646 247.855 126.518 247.364 126.393C246.916 126.276 246.55 126.158 246.264 126.041C245.985 125.916 245.743 125.737 245.538 125.502C245.34 125.26 245.241 124.945 245.241 124.556C245.241 124.248 245.332 123.966 245.516 123.709C245.699 123.452 245.959 123.251 246.297 123.104C246.634 122.95 247.019 122.873 247.452 122.873C248.119 122.873 248.658 123.042 249.069 123.379C249.479 123.716 249.699 124.178 249.729 124.765H248.728C248.706 124.45 248.577 124.197 248.343 124.006C248.115 123.815 247.807 123.72 247.419 123.72C247.059 123.72 246.773 123.797 246.561 123.951C246.348 124.105 246.242 124.307 246.242 124.556C246.242 124.754 246.304 124.919 246.429 125.051C246.561 125.176 246.722 125.278 246.913 125.359C247.111 125.432 247.382 125.517 247.727 125.612C248.159 125.729 248.511 125.847 248.783 125.964C249.054 126.074 249.285 126.243 249.476 126.47C249.674 126.697 249.776 126.994 249.784 127.361C249.784 127.691 249.692 127.988 249.509 128.252C249.325 128.516 249.065 128.725 248.728 128.879C248.398 129.026 248.016 129.099 247.584 129.099ZM251.714 121.993C251.523 121.993 251.362 121.927 251.23 121.795C251.098 121.663 251.032 121.502 251.032 121.311C251.032 121.12 251.098 120.959 251.23 120.827C251.362 120.695 251.523 120.629 251.714 120.629C251.897 120.629 252.051 120.695 252.176 120.827C252.308 120.959 252.374 121.12 252.374 121.311C252.374 121.502 252.308 121.663 252.176 121.795C252.051 121.927 251.897 121.993 251.714 121.993ZM252.198 122.972V129H251.197V122.972H252.198ZM256.148 128.076L258.018 122.972H259.085L256.72 129H255.554L253.189 122.972H254.267L256.148 128.076ZM265.57 125.755C265.57 125.946 265.559 126.147 265.537 126.36H260.719C260.755 126.954 260.957 127.42 261.324 127.757C261.698 128.087 262.149 128.252 262.677 128.252C263.109 128.252 263.469 128.153 263.755 127.955C264.048 127.75 264.253 127.478 264.371 127.141H265.449C265.287 127.72 264.965 128.193 264.481 128.56C263.997 128.919 263.395 129.099 262.677 129.099C262.105 129.099 261.591 128.971 261.137 128.714C260.689 128.457 260.337 128.094 260.081 127.625C259.824 127.148 259.696 126.598 259.696 125.975C259.696 125.352 259.82 124.805 260.07 124.336C260.319 123.867 260.667 123.507 261.115 123.258C261.569 123.001 262.09 122.873 262.677 122.873C263.249 122.873 263.755 122.998 264.195 123.247C264.635 123.496 264.972 123.841 265.207 124.281C265.449 124.714 265.57 125.205 265.57 125.755ZM264.536 125.546C264.536 125.165 264.451 124.838 264.283 124.567C264.114 124.288 263.883 124.079 263.59 123.94C263.304 123.793 262.985 123.72 262.633 123.72C262.127 123.72 261.694 123.881 261.335 124.204C260.983 124.527 260.781 124.974 260.73 125.546H264.536ZM268.189 121.333L268.068 126.833H267.232L267.111 121.333H268.189ZM267.694 129.066C267.503 129.066 267.342 129 267.21 128.868C267.078 128.736 267.012 128.575 267.012 128.384C267.012 128.193 267.078 128.032 267.21 127.9C267.342 127.768 267.503 127.702 267.694 127.702C267.877 127.702 268.031 127.768 268.156 127.9C268.288 128.032 268.354 128.193 268.354 128.384C268.354 128.575 268.288 128.736 268.156 128.868C268.031 129 267.877 129.066 267.694 129.066ZM270.651 120.244L270.53 122.433H269.837L269.705 120.244H270.651ZM272.136 120.244L272.015 122.433H271.322L271.19 120.244H272.136Z" fill="white"/>
<path d="M319.823 20H306.195C305.864 20 305.582 20.1056 305.349 20.3168C305.116 20.528 305 20.782 305 21.0788V33.9212C305 34.218 305.116 34.472 305.349 34.6832C305.582 34.8944 305.864 35 306.195 35H319.823C320.142 35 320.418 34.8944 320.651 34.6832C320.884 34.472 321 34.218 321 33.9212V21.0788C321 20.782 320.884 20.528 320.651 20.3168C320.418 20.1056 320.142 20 319.823 20ZM309.855 32.5514H307.446V25.7877H309.855V32.5514ZM308.641 24.863H308.623C308.231 24.863 307.912 24.7517 307.667 24.5291C307.421 24.3065 307.299 24.0268 307.299 23.6901C307.299 23.3533 307.425 23.0736 307.676 22.851C307.927 22.6284 308.255 22.5171 308.66 22.5171C309.064 22.5171 309.389 22.6284 309.634 22.851C309.88 23.0736 310.002 23.3533 310.002 23.6901C310.002 24.0268 309.88 24.3065 309.634 24.5291C309.389 24.7517 309.058 24.863 308.641 24.863ZM318.554 32.5514H316.145V28.9212C316.145 28.4418 316.053 28.0765 315.869 27.8253C315.661 27.54 315.348 27.3973 314.931 27.3973C314.625 27.3973 314.355 27.4829 314.122 27.6541C313.938 27.8025 313.791 27.9909 313.68 28.2192C313.631 28.3562 313.607 28.5388 313.607 28.7671V32.5514H311.198V29.4007C311.21 27.2546 311.21 26.0502 311.198 25.7877H313.607V26.7466C314.11 26.0046 314.833 25.6336 315.777 25.6336C316.611 25.6336 317.273 25.879 317.763 26.3699C318.29 26.9064 318.554 27.6712 318.554 28.6644V32.5514Z" fill="white"/>
</svg>
